<svg width="49" height="43" viewBox="0 0 49 43" fill="none" xmlns="http://www.w3.org/2000/svg">
<path d="M30.0742 0.105305C28.7725 -0.306132 27.4173 0.525138 27.0421 1.95257L17.2413 39.5696C16.8661 40.9971 17.6242 42.4833 18.9258 42.8947C20.2275 43.3061 21.5827 42.4749 21.9579 41.0474L31.7587 3.43038C32.1339 2.00295 31.3759 0.516741 30.0742 0.105305ZM36.2456 10.1897C35.2885 11.2393 35.2885 12.9438 36.2456 13.9934L43.0832 21.5L36.2379 29.0066C35.2808 30.0562 35.2808 31.7607 36.2379 32.8103C37.1951 33.8599 38.7494 33.8599 39.7065 32.8103L48.2822 23.406C49.2393 22.3565 49.2393 20.6519 48.2822 19.6024L39.7065 10.1981C38.7494 9.14851 37.1951 9.14851 36.2379 10.1981L36.2456 10.1897ZM12.7621 10.1897C11.8049 9.14011 10.2506 9.14011 9.2935 10.1897L0.71783 19.594C-0.239277 20.6435 -0.239277 22.3481 0.71783 23.3976L9.2935 32.8019C10.2506 33.8515 11.8049 33.8515 12.7621 32.8019C13.7192 31.7523 13.7192 30.0478 12.7621 28.9982L5.91683 21.5L12.7621 13.9934C13.7192 12.9438 13.7192 11.2393 12.7621 10.1897Z" fill="#454545"/>
</svg>
