<svg width="104" height="70" viewBox="0 0 104 70" fill="none" xmlns="http://www.w3.org/2000/svg">
<path d="M80.7188 65.0415C80.3386 65.4165 79.8178 65.6561 79.2397 65.6561C78.6615 65.6561 78.1355 65.4217 77.7605 65.0415C77.3855 64.6613 77.1511 64.1405 77.1511 63.5623C77.1511 62.9842 77.3803 62.4582 77.7605 62.0832C78.1355 61.703 78.6615 61.4738 79.2397 61.4738C79.8178 61.4738 80.3386 61.7082 80.724 62.0832C81.099 62.4582 81.3282 62.9842 81.3282 63.5623C81.3282 64.1405 81.099 64.6613 80.7188 65.0415ZM26.8542 65.0415C26.4792 65.4165 25.9532 65.6561 25.3803 65.6561C24.797 65.6561 24.2761 65.4217 23.9011 65.0415C23.5209 64.6613 23.2865 64.1405 23.2865 63.5623C23.2865 62.9842 23.5209 62.4582 23.8959 62.0832C24.2761 61.703 24.797 61.4738 25.3803 61.4738C25.9532 61.4738 26.4792 61.7082 26.8595 62.0832C27.2345 62.4582 27.4688 62.9842 27.4688 63.5623C27.4688 64.1405 27.2345 64.6613 26.8542 65.0415ZM79.2397 57.7655C77.6459 57.7655 76.198 58.4165 75.1407 59.4738C74.4845 60.13 73.9845 60.9425 73.7032 61.8488C69.3126 61.5259 65.099 60.1353 61.7345 57.6613C57.9272 54.854 55.198 50.5675 54.5157 44.854C54.5157 44.854 54.4011 37.9217 54.4011 37.6978C54.4011 36.8488 54.2136 34.9634 52.3543 34.9634C50.6199 34.9634 50.3282 36.8853 50.3282 37.6769C50.3282 37.854 50.1928 44.88 50.1928 44.88C49.5105 50.5884 46.8074 54.7967 43.0001 57.5988C39.6303 60.078 35.422 61.4634 31.0313 61.7863C30.7501 60.88 30.2501 60.0675 29.5938 59.4061C28.547 58.354 27.0938 57.703 25.4949 57.703C23.8959 57.703 22.4428 58.354 21.3959 59.4061C20.3438 60.453 19.698 61.9009 19.698 63.505C19.698 65.104 20.3438 66.5519 21.4011 67.5988C22.4532 68.6509 23.9011 69.2967 25.4949 69.2967C27.0886 69.2967 28.5313 68.6509 29.5938 67.5936C30.1772 67.005 30.6407 66.2967 30.9324 65.5103C36.1199 65.1873 41.1459 63.5571 45.1824 60.5832C48.2865 58.2967 50.797 55.2394 52.3543 51.3957C53.9115 55.2655 56.4324 58.3488 59.5522 60.6405C63.5886 63.6144 68.6147 65.2446 73.797 65.5675C74.0938 66.3644 74.5574 67.0728 75.1511 67.6613C76.198 68.7134 77.6459 69.3592 79.2397 69.3592C80.8386 69.3592 82.2918 68.7134 83.3386 67.6613C84.3855 66.6144 85.0365 65.1665 85.0365 63.5623C85.0365 61.9686 84.3855 60.5207 83.3386 59.4634C82.2918 58.4165 80.8386 57.7655 79.2397 57.7655Z" fill="#D9BADE"/>
<path d="M93.3803 53.5726C93.7553 53.1924 94.2813 52.9632 94.8595 52.9632C95.4324 52.9632 95.9584 53.1924 96.3438 53.5726C96.7188 53.9476 96.948 54.4684 96.948 55.0518C96.948 55.6351 96.7188 56.1559 96.3334 56.5361C95.9636 56.9111 95.4376 57.1403 94.8595 57.1403C94.2761 57.1403 93.7553 56.9111 93.3803 56.5309C93.0001 56.1507 92.7657 55.6299 92.7657 55.0518C92.7657 54.4736 93.0001 53.9528 93.3803 53.5726ZM11.5105 56.5361C11.1355 56.9111 10.6147 57.1403 10.0313 57.1403C9.448 57.1403 8.92717 56.9111 8.55217 56.5309C8.17717 56.1507 7.94279 55.6299 7.94279 55.0518C7.94279 54.4736 8.17717 53.9528 8.55217 53.5726C8.93237 53.1924 9.45321 52.9632 10.0313 52.9632C10.6095 52.9632 11.1303 53.1924 11.5157 53.5726C11.8907 53.9476 12.1199 54.4684 12.1199 55.0518C12.1199 55.6351 11.8907 56.1559 11.5105 56.5361ZM19.349 20.7393C19.3386 21.307 19.1095 21.8174 18.7345 22.1924C18.3595 22.5726 17.8334 22.807 17.2553 22.807C16.6824 22.807 16.1563 22.5726 15.7761 22.1924C15.3959 21.8174 15.1667 21.2966 15.1667 20.7132C15.1667 20.1299 15.3959 19.6091 15.7709 19.2393C16.1511 18.8538 16.6772 18.6247 17.2553 18.6247C17.8386 18.6247 18.3647 18.8538 18.7345 19.2288C19.1147 19.6143 19.349 20.1351 19.349 20.7132V20.7393ZM7.65112 37.8903C7.28133 38.2705 6.75529 38.4997 6.17196 38.4997C5.59383 38.4997 5.073 38.2705 4.698 37.8955C4.31258 37.5153 4.08341 36.9945 4.08341 36.4111C4.08341 35.8278 4.31258 35.307 4.68758 34.932C5.073 34.557 5.59904 34.3174 6.17196 34.3174C6.75008 34.3174 7.27612 34.557 7.65112 34.932C8.03133 35.3122 8.26571 35.833 8.26571 36.4111C8.26571 36.9893 8.03133 37.5101 7.65112 37.8903ZM84.2397 20.7809C84.2397 20.2028 84.474 19.6768 84.8542 19.2913C85.224 18.9216 85.7501 18.6872 86.3282 18.6872C86.9115 18.6872 87.4324 18.9216 87.8178 19.3018C88.1876 19.6768 88.422 20.1976 88.422 20.7809C88.422 21.3591 88.1876 21.8851 87.8074 22.2549C87.4324 22.6351 86.9063 22.8695 86.3282 22.8695C85.7553 22.8695 85.2292 22.6351 84.8542 22.2549C84.4792 21.8851 84.2501 21.3747 84.2397 20.807V20.7809ZM95.8855 34.932C96.2709 34.557 96.7917 34.3174 97.3699 34.3174C97.948 34.3174 98.4688 34.557 98.849 34.932C99.224 35.3122 99.4636 35.833 99.4636 36.4111C99.4636 36.9893 99.224 37.5101 98.849 37.8903C98.474 38.2705 97.9532 38.4997 97.3699 38.4997C96.7865 38.4997 96.2657 38.2705 95.8907 37.8955C95.5105 37.5153 95.2813 36.9945 95.2813 36.4111C95.2813 35.8278 95.5105 35.307 95.8855 34.932ZM81.4584 40.8747C82.5574 39.7341 83.4115 38.3278 83.9324 36.7705C86.474 37.6924 89.1772 38.2445 91.9324 38.4163C92.224 39.2028 92.6876 39.9163 93.2709 40.5049C94.3334 41.557 95.7761 42.208 97.3699 42.208C98.9636 42.208 100.412 41.557 101.464 40.5049C102.521 39.4632 103.167 38.0101 103.167 36.4111C103.167 34.8122 102.521 33.3591 101.469 32.3122C100.422 31.2653 98.9688 30.6143 97.3699 30.6143C95.7709 30.6143 94.323 31.2653 93.2709 32.3122C92.6147 32.9736 92.1147 33.7861 91.8334 34.6924C89.2917 34.5101 86.8126 33.9528 84.5261 33.0361V26.1872C85.1511 26.4372 85.8282 26.5778 86.5417 26.5778C88.0834 26.5778 89.4792 25.9268 90.4845 24.8747C91.5001 23.8226 92.1251 22.3747 92.1251 20.7809C92.1251 19.1872 91.5001 17.7393 90.4845 16.682C89.4688 15.6299 88.073 14.984 86.5417 14.984C85.0053 14.984 83.6095 15.6351 82.5886 16.682C81.5782 17.7288 80.9532 19.1768 80.9532 20.7809V33.2184C80.9532 35.182 80.1772 36.9632 78.9324 38.2549C77.6876 39.5518 75.9636 40.3538 74.0782 40.3538C72.6928 40.3538 71.4063 39.9216 70.323 39.182C69.8334 36.9632 69.8751 35.333 69.8751 35.3018L69.7761 17.3174C69.1876 8.1403 61.6095 0.989258 52.3699 0.989258C42.7397 0.989258 34.9063 8.82259 34.9063 18.4528L34.9115 35.1924C34.9115 35.2236 34.9532 36.6976 34.4011 38.8903C33.2136 39.7653 31.7605 40.2913 30.1876 40.2913C28.2292 40.2913 26.4428 39.4841 25.1511 38.1924C23.8595 36.9007 23.0522 35.1143 23.0522 33.1559V20.7132C23.0522 19.1143 22.4063 17.6611 21.3542 16.6143C20.3022 15.5674 18.8542 14.9163 17.2553 14.9163C15.6667 14.9163 14.2188 15.5674 13.1667 16.6143C12.1095 17.6768 11.4636 19.1247 11.4636 20.7132C11.4636 22.307 12.1095 23.7549 13.1615 24.807C14.2084 25.8591 15.6563 26.5101 17.2553 26.5101C17.9949 26.5101 18.698 26.3747 19.349 26.1247V32.9632C17.0053 33.9216 14.4584 34.5049 11.8438 34.6924C11.5626 33.7861 11.0626 32.9736 10.4063 32.3122C9.35946 31.2653 7.91154 30.6143 6.30737 30.6143C4.70841 30.6143 3.2605 31.2653 2.20841 32.3122C1.16154 33.3591 0.510498 34.8122 0.510498 36.4111C0.510498 38.0101 1.16154 39.4632 2.21362 40.5049C3.26571 41.557 4.71362 42.208 6.30737 42.208C7.90112 42.208 9.34904 41.557 10.4063 40.5049C10.9897 39.9163 11.4532 39.2028 11.7449 38.4163C14.5782 38.2393 17.3542 37.6611 19.9532 36.6924C20.5001 38.2549 21.3803 39.6663 22.5313 40.8122C24.4949 42.7757 27.2032 43.9945 30.1876 43.9945C30.9688 43.9945 31.724 43.9007 32.4636 43.7445C31.948 44.6716 31.3334 45.6195 30.5782 46.5778C28.5886 49.0934 25.0678 52.0882 15.5522 53.2861C15.1303 51.9788 14.6563 51.4372 14.1303 50.9528C13.0417 49.9476 11.6355 49.2549 10.0313 49.2549C8.43237 49.2549 6.98446 49.9059 5.93237 50.9528C4.8855 51.9997 4.23446 53.4528 4.23446 55.0518C4.23446 56.6507 4.8855 58.0986 5.93758 59.1455C6.98967 60.1976 8.43758 60.8486 10.0313 60.8486C11.6251 60.8486 13.073 60.1976 14.1303 59.1403C14.7136 58.557 15.1772 57.8434 15.4688 57.057C15.4688 57.057 15.4897 57.0309 15.5209 56.9841C24.2657 55.9632 29.8282 53.4372 33.4532 48.8486C38.6563 42.2653 38.599 35.7913 38.573 35.0726V18.4528C38.573 10.8486 44.7605 4.65592 52.3699 4.65592C59.7605 4.65592 65.8126 10.4372 66.1459 17.8122H66.1511L66.2136 35.1872C66.1876 35.9893 66.0678 44.1611 72.1824 50.0413C72.4324 50.3018 78.4376 56.3018 89.3595 56.8903C89.7761 58.1403 90.2397 58.6716 90.7553 59.1507C91.8438 60.1559 93.2553 60.8486 94.8542 60.8486C96.4532 60.8486 97.9063 60.1976 98.9532 59.1507C100 58.0986 100.651 56.6507 100.651 55.0518C100.651 53.4528 100 51.9997 98.948 50.958C97.8959 49.9059 96.448 49.2549 94.8542 49.2549C93.2605 49.2549 91.8126 49.9007 90.7553 50.958C90.172 51.5466 89.7084 52.2549 89.4167 53.0466C89.4167 53.0466 89.3699 53.1091 89.3126 53.2132C80.0313 52.6247 74.849 47.5257 74.7657 47.4372C73.599 46.3226 72.724 45.0882 72.047 43.8486C72.7084 43.9841 73.3803 44.0622 74.0782 44.0622C76.9532 44.0622 79.5626 42.8434 81.4584 40.8747Z" fill="#D9BADE"/>
</svg>
