<svg width="244" height="70" viewBox="0 0 244 70" fill="none" xmlns="http://www.w3.org/2000/svg">
<path d="M12.1705 35.7368C15.8997 35.7368 19.0038 34.6535 21.108 32.5285C23.1913 30.466 24.358 27.4243 24.358 23.341V0.799316H16.5872V22.9868C16.5872 26.966 14.8163 28.6952 11.9622 28.6952C9.56633 28.6952 7.64966 27.4243 5.67049 25.2577L0.899658 30.5702C3.25382 33.3618 6.79549 35.7368 12.1705 35.7368Z" fill="#F26443"/>
<path d="M48.2746 35.7785C57.5246 35.7785 63.3787 30.6535 63.3787 20.2368V0.799316H55.7954V20.5285C55.7954 25.9868 52.9829 28.7993 48.3579 28.7993C43.7537 28.7993 40.9412 25.8827 40.9412 20.2785V0.799316H33.3579V20.4868C33.3579 30.6118 39.0246 35.7785 48.2746 35.7785Z" fill="#F26443"/>
<path d="M72.906 35.2368H80.4893V24.9035H86.2393C93.9685 24.9035 100.156 20.7785 100.156 12.7993V12.716C100.156 5.67432 95.1977 0.799316 86.9893 0.799316H72.906V35.2368ZM80.4893 18.1743V7.63265H86.3435C90.1352 7.63265 92.4893 9.46598 92.4893 12.8618V12.9452C92.4893 15.9035 90.281 18.1743 86.4893 18.1743H80.4893Z" fill="#F26443"/>
<path d="M116.78 35.2368H124.363V21.5077L137.592 0.799316H128.988L120.634 14.6327L112.405 0.799316H103.551L116.78 21.6535V35.2368Z" fill="#F26443"/>
<path d="M152.152 35.2368H159.736V7.79932H170.215V0.799316H141.673V7.79932H152.152V35.2368Z" fill="#F26443"/>
<path d="M177.826 35.2368H204.055V28.5077H185.367V21.2577H201.597V14.5285H185.367V7.54932H203.805V0.799316H177.826V35.2368Z" fill="#F26443"/>
<path d="M212.602 35.2368H220.185V24.216H226.144L233.519 35.2368H242.373L233.956 22.9452C238.331 21.3202 241.331 17.8202 241.331 12.2577V12.1743C241.331 8.92432 240.31 6.21598 238.373 4.29932C236.123 2.02848 232.727 0.799316 228.352 0.799316H212.602V35.2368ZM220.185 17.5285V7.63265H227.706C231.394 7.63265 233.665 9.32015 233.665 12.5702V12.6535C233.665 15.5702 231.54 17.5285 227.852 17.5285H220.185Z" fill="#F26443"/>
<path d="M2.67065 68.9189H21.1915V64.1689H7.98315V59.0648H19.4415V54.2939H7.98315V49.3564H21.004V44.6064H2.67065V68.9189Z" fill="#F26443"/>
<path d="M32.3299 69.0856H37.0382L46.8716 44.6064H41.1216L34.7466 61.7314L28.3924 44.6064H22.4966L32.3299 69.0856Z" fill="#F26443"/>
<path d="M49.2668 68.9189H67.7877V64.1689H54.5793V59.0648H66.0377V54.2939H54.5793V49.3564H67.6002V44.6064H49.2668V68.9189Z" fill="#F26443"/>
<path d="M71.176 68.9189H76.5302V61.1481H80.7177L85.9469 68.9189H92.1969L86.2594 60.2314C89.3427 59.0856 91.4677 56.6273 91.4677 52.7106V52.6273C91.4677 50.3356 90.7385 48.4189 89.3844 47.0648C87.7802 45.4814 85.3844 44.6064 82.2802 44.6064H71.176V68.9189ZM76.5302 56.4189V49.4398H81.8427C84.4469 49.4398 86.051 50.6064 86.051 52.9189V52.9814C86.051 55.0231 84.551 56.4189 81.9469 56.4189H76.5302Z" fill="#F26443"/>
<path d="M100.891 68.9189H106.245V59.2314L115.599 44.6064H109.516L103.599 54.3773L97.8076 44.6064H91.5576L100.891 59.3356V68.9189Z" fill="#F26443"/>
<path d="M123.286 69.0856H127.953L133.432 53.1898L138.932 69.0856H143.578L151.87 44.6064H146.286L141.245 61.0648L135.807 44.5439H131.224L125.765 61.0648L120.724 44.6064H114.995L123.286 69.0856Z" fill="#F26443"/>
<path d="M154.473 68.9189H159.827V59.1689H169.681V68.9189H175.035V44.6064H169.681V54.2314H159.827V44.6064H154.473V68.9189Z" fill="#F26443"/>
<path d="M179.507 68.9189H198.028V64.1689H184.82V59.0648H196.278V54.2939H184.82V49.3564H197.84V44.6064H179.507V68.9189Z" fill="#F26443"/>
<path d="M201.416 68.9189H206.77V61.1481H210.958L216.187 68.9189H222.437L216.5 60.2314C219.583 59.0856 221.708 56.6273 221.708 52.7106V52.6273C221.708 50.3356 220.979 48.4189 219.625 47.0648C218.02 45.4814 215.625 44.6064 212.52 44.6064H201.416V68.9189ZM206.77 56.4189V49.4398H212.083C214.687 49.4398 216.291 50.6064 216.291 52.9189V52.9814C216.291 55.0231 214.791 56.4189 212.187 56.4189H206.77Z" fill="#F26443"/>
<path d="M225.166 68.9189H243.687V64.1689H230.478V59.0648H241.937V54.2939H230.478V49.3564H243.499V44.6064H225.166V68.9189Z" fill="#F26443"/>
</svg>
