<svg width="31" height="22" viewBox="0 0 31 22" fill="none" xmlns="http://www.w3.org/2000/svg">
<path d="M17.0229 20.6847C16.0317 21.3102 14.4219 21.3102 13.4307 20.6847L0.743399 12.6777C-0.2478 12.0522 -0.2478 11.0363 0.743399 10.4108C1.7346 9.78524 3.34431 9.78524 4.33551 10.4108L15.2308 17.2867L26.126 10.4158C27.1172 9.79024 28.7269 9.79024 29.7181 10.4158C30.7093 11.0413 30.7093 12.0572 29.7181 12.6827L17.0308 20.6897L17.0229 20.6847ZM29.7102 3.06943L17.0229 11.0764C16.0317 11.7019 14.4219 11.7019 13.4307 11.0764L0.743399 3.06943C-0.2478 2.44389 -0.2478 1.42801 0.743399 0.802469C1.7346 0.176928 3.34431 0.176928 4.33551 0.802469L15.2308 7.67842L26.126 0.807473C27.1172 0.181932 28.7269 0.181932 29.7181 0.807473C30.7093 1.43301 30.7093 2.44889 29.7181 3.07443L29.7102 3.06943Z" fill="#482F87"/>
</svg>
