<svg width="43" height="43" viewBox="0 0 43 43" fill="none" xmlns="http://www.w3.org/2000/svg">
<path d="M33 18.8125C37.9688 18.8125 42 15.2012 42 10.75C42 6.29883 37.9688 2.6875 33 2.6875C28.0312 2.6875 24 6.29883 24 10.75C24 11.0859 24.0188 11.4219 24.0656 11.7494L15.2438 15.6967C13.6313 14.2941 11.4281 13.4375 9 13.4375C4.03125 13.4375 0 17.0488 0 21.5C0 25.9512 4.03125 29.5625 9 29.5625C11.4281 29.5625 13.6313 28.7059 15.2438 27.3033L24.0656 31.2506C24.0188 31.5781 24 31.9057 24 32.25C24 36.7012 28.0312 40.3125 33 40.3125C37.9688 40.3125 42 36.7012 42 32.25C42 27.7988 37.9688 24.1875 33 24.1875C30.5719 24.1875 28.3687 25.0441 26.7562 26.4467L17.9344 22.4994C17.9813 22.1719 18 21.8443 18 21.5C18 21.1557 17.9813 20.8281 17.9344 20.5006L26.7562 16.5533C28.3687 17.9559 30.5719 18.8125 33 18.8125Z" fill="#454545"/>
</svg>
