<svg width="29" height="30" viewBox="0 0 29 30" fill="none" xmlns="http://www.w3.org/2000/svg">
<mask id="mask0_37_14" style="mask-type:luminance" maskUnits="userSpaceOnUse" x="0" y="0" width="29" height="30">
<path d="M0.188965 0.849121H28.6221V29.2822H0.188965V0.849121Z" fill="white"/>
</mask>
<g mask="url(#mask0_37_14)">
<mask id="mask1_37_14" style="mask-type:luminance" maskUnits="userSpaceOnUse" x="0" y="0" width="29" height="30">
<path d="M14.5458 0.849121C6.61915 0.849121 0.188965 7.27541 0.188965 15.206C0.188965 23.1365 6.61915 29.5628 14.5458 29.5628C22.4764 29.5628 28.9066 23.1365 28.9066 15.206C28.9066 7.27541 22.4764 0.849121 14.5458 0.849121Z" fill="white"/>
</mask>
<g mask="url(#mask1_37_14)">
<path d="M14.5458 0.849121C6.61915 0.849121 0.188965 7.27541 0.188965 15.206C0.188965 23.1365 6.61915 29.5628 14.5458 29.5628C22.4764 29.5628 28.9027 23.1365 28.9027 15.206C28.9027 7.27541 22.4764 0.849121 14.5458 0.849121Z" stroke="#F47950" stroke-width="8.97887"/>
</g>
</g>
<mask id="mask2_37_14" style="mask-type:luminance" maskUnits="userSpaceOnUse" x="8" y="11" width="13" height="10">
<path d="M8.54834 11.0048H20.528V20.1395H8.54834V11.0048Z" fill="white"/>
</mask>
<g mask="url(#mask2_37_14)">
<mask id="mask3_37_14" style="mask-type:luminance" maskUnits="userSpaceOnUse" x="8" y="11" width="13" height="10">
<path d="M15.8203 19.4497L20.3214 12.8948C20.5669 12.5324 20.5942 12.0647 20.3916 11.675C20.185 11.2853 19.7836 11.0437 19.3471 11.0437H9.75252C9.31215 11.0437 8.91075 11.2853 8.70421 11.675C8.50156 12.0647 8.52884 12.5324 8.77825 12.8948L13.2794 19.4497C13.5639 19.8667 14.0393 20.12 14.5498 20.12C15.0564 20.12 15.5319 19.8667 15.8203 19.4497Z" fill="white"/>
</mask>
<g mask="url(#mask3_37_14)">
<path d="M7.50781 11.0437H21.6113V21.3008H7.50781V11.0437Z" fill="#F47950"/>
</g>
</g>
</svg>
