<svg width="57" height="76" viewBox="0 0 57 76" fill="none" xmlns="http://www.w3.org/2000/svg">
<g clip-path="url(#clip0_430_4002)">
<path d="M47.5 68.875C48.8063 68.875 49.875 67.8063 49.875 66.5V23.75H38C35.3727 23.75 33.25 21.6273 33.25 19V7.125H9.5C8.19375 7.125 7.125 8.19375 7.125 9.5V66.5C7.125 67.8063 8.19375 68.875 9.5 68.875H47.5ZM0 9.5C0 4.26016 4.26016 0 9.5 0H34.0664C36.5898 0 39.0094 0.994531 40.7906 2.77578L54.2242 16.2094C56.0055 17.9906 57 20.4102 57 22.9336V66.5C57 71.7398 52.7398 76 47.5 76H9.5C4.26016 76 0 71.7398 0 66.5V9.5Z" fill="#482F87"/>
</g>
<defs>
<clipPath id="clip0_430_4002">
<rect width="57" height="76" fill="white"/>
</clipPath>
</defs>
</svg>
