<svg width="34" height="34" viewBox="0 0 34 34" xmlns="http://www.w3.org/2000/svg">
<path d="M17 34C21.5087 34 25.8327 32.2089 29.0208 29.0208C32.2089 25.8327 34 21.5087 34 17C34 12.4913 32.2089 8.1673 29.0208 4.97919C25.8327 1.79107 21.5087 0 17 0C12.4913 0 8.1673 1.79107 4.97919 4.97919C1.79107 8.1673 0 12.4913 0 17C0 21.5087 1.79107 25.8327 4.97919 29.0208C8.1673 32.2089 12.4913 34 17 34ZM11.2758 10.977C11.8004 9.49609 13.2082 8.5 14.782 8.5H18.6535C20.9711 8.5 22.8438 10.3793 22.8438 12.6902C22.8438 14.191 22.0402 15.5789 20.7387 16.3293L18.5938 17.5578C18.5805 18.4211 17.8699 19.125 17 19.125C16.1168 19.125 15.4062 18.4145 15.4062 17.5312V16.6348C15.4062 16.0637 15.7117 15.5391 16.2098 15.2535L19.1516 13.5668C19.4637 13.3875 19.6562 13.0555 19.6562 12.6969C19.6562 12.1391 19.2047 11.6941 18.6535 11.6941H14.782C14.5563 11.6941 14.357 11.8336 14.284 12.0461L14.2574 12.1258C13.9652 12.9559 13.0488 13.3875 12.2254 13.0953C11.402 12.8031 10.9637 11.8867 11.2559 11.0633L11.2824 10.9836L11.2758 10.977ZM14.875 23.375C14.875 22.8114 15.0989 22.2709 15.4974 21.8724C15.8959 21.4739 16.4364 21.25 17 21.25C17.5636 21.25 18.1041 21.4739 18.5026 21.8724C18.9011 22.2709 19.125 22.8114 19.125 23.375C19.125 23.9386 18.9011 24.4791 18.5026 24.8776C18.1041 25.2761 17.5636 25.5 17 25.5C16.4364 25.5 15.8959 25.2761 15.4974 24.8776C15.0989 24.4791 14.875 23.9386 14.875 23.375Z" fill="#F36342"/>
</svg>
