<svg width="74" height="74" viewBox="0 0 74 74" fill="none" xmlns="http://www.w3.org/2000/svg">
<path d="M0 13.875C0 8.77305 4.14805 4.625 9.25 4.625H64.75C69.852 4.625 74 8.77305 74 13.875V60.125C74 65.227 69.852 69.375 64.75 69.375H9.25C4.14805 69.375 0 65.227 0 60.125V13.875ZM46.7992 29.2676C46.1488 28.3137 45.0793 27.75 43.9375 27.75C42.7957 27.75 41.7117 28.3137 41.0758 29.2676L28.5016 47.7098L24.6715 42.9258C24.0066 42.102 23.0094 41.625 21.9688 41.625C20.9281 41.625 19.9164 42.102 19.266 42.9258L10.016 54.4883C9.17773 55.5289 9.01875 56.9598 9.59688 58.1594C10.175 59.359 11.3891 60.125 12.7188 60.125H26.5938H31.2187H61.2812C62.5676 60.125 63.7527 59.4168 64.3453 58.275C64.9379 57.1332 64.8656 55.7602 64.143 54.7051L46.7992 29.2676ZM16.1875 27.75C18.0274 27.75 19.792 27.0191 21.0931 25.7181C22.3941 24.417 23.125 22.6524 23.125 20.8125C23.125 18.9726 22.3941 17.208 21.0931 15.9069C19.792 14.6059 18.0274 13.875 16.1875 13.875C14.3476 13.875 12.583 14.6059 11.2819 15.9069C9.98091 17.208 9.25 18.9726 9.25 20.8125C9.25 22.6524 9.98091 24.417 11.2819 25.7181C12.583 27.0191 14.3476 27.75 16.1875 27.75Z" fill="#4B3187"/>
</svg>
