<svg width="20" height="27" viewBox="0 0 20 27" fill="none" xmlns="http://www.w3.org/2000/svg">
<mask id="mask0_158_3173" style="mask-type:luminance" maskUnits="userSpaceOnUse" x="0" y="0" width="20" height="27">
<path d="M0.446899 0.484863H19.7888V26.1732H0.446899V0.484863Z" fill="white"/>
</mask>
<g mask="url(#mask0_158_3173)">
<mask id="mask1_158_3173" style="mask-type:luminance" maskUnits="userSpaceOnUse" x="0" y="0" width="20" height="27">
<path d="M18.5635 11.1352L3.67151 0.907043C3.03998 0.473227 2.22218 0.426643 1.54699 0.781848C0.868893 1.13705 0.446899 1.83873 0.446899 2.60446V24.0973C0.446899 24.8601 0.868893 25.5618 1.54699 25.9199C2.22218 26.2751 3.03998 26.2285 3.67151 25.7947L18.5635 15.5665C19.294 15.0628 19.7305 14.236 19.7305 13.3509C19.7305 12.4658 19.294 11.636 18.5635 11.1352Z" fill="white"/>
</mask>
<g mask="url(#mask1_158_3173)">
<path d="M0.446899 28.0104V-1.34938H21.7881V28.0104H0.446899Z" fill="#482F87"/>
</g>
</g>
</svg>
