<svg width="26" height="26" viewBox="0 0 26 26" fill="none" xmlns="http://www.w3.org/2000/svg">
<mask id="mask0_158_3164" style="mask-type:luminance" maskUnits="userSpaceOnUse" x="-1" y="0" width="27" height="26">
<path d="M-0.00732422 0.10791H25.7052V25.3362H-0.00732422V0.10791Z" fill="white"/>
</mask>
<g mask="url(#mask0_158_3164)">
<mask id="mask1_158_3164" style="mask-type:luminance" maskUnits="userSpaceOnUse" x="-1" y="0" width="27" height="26">
<path d="M3.90412 0.10791H21.7588C22.7978 0.10791 23.7931 0.521346 24.5265 1.25505C25.2599 1.98875 25.6703 2.98449 25.6703 4.02099V21.4231C25.6703 22.4625 25.2599 23.4583 24.5265 24.192C23.7931 24.9257 22.7978 25.3362 21.7588 25.3362H3.90412C2.86805 25.3362 1.87273 24.9257 1.13933 24.192C0.405938 23.4583 -0.00732422 22.4625 -0.00732422 21.4231V4.02099C-0.00732422 2.98449 0.405938 1.98875 1.13933 1.25505C1.87273 0.521346 2.86805 0.10791 3.90412 0.10791Z" fill="white"/>
</mask>
<g mask="url(#mask1_158_3164)">
<path d="M-0.00732422 0.10791H25.7052V25.3362H-0.00732422V0.10791Z" fill="#482F87"/>
</g>
</g>
</svg>
